<svg width="27" height="21" viewBox="0 0 27 21" fill="none" xmlns="http://www.w3.org/2000/svg">
<g id="Sandwich">
<path id="Rectangle" d="M0 1.5C0 0.671573 0.671573 0 1.5 0H25.5C26.3284 0 27 0.671573 27 1.5C27 2.32843 26.3284 3 25.5 3H1.5C0.671573 3 0 2.32843 0 1.5Z" fill="white"/>
<path id="Rectangle_2" d="M0 10.5C0 9.67157 0.671573 9 1.5 9H21.5C22.3284 9 23 9.67157 23 10.5C23 11.3284 22.3284 12 21.5 12H1.5C0.671573 12 0 11.3284 0 10.5Z" fill="white"/>
<path id="Rectangle_3" d="M0 19.5C0 18.6716 0.671573 18 1.5 18H25.5C26.3284 18 27 18.6716 27 19.5C27 20.3284 26.3284 21 25.5 21H1.5C0.671573 21 0 20.3284 0 19.5Z" fill="white"/>
</g>
</svg>
