<svg width="140" height="29" viewBox="0 0 140 29" fill="none" xmlns="http://www.w3.org/2000/svg">
<path d="M52.4145 25.0494C49.7159 25.0494 47.7668 24.4959 46.5674 23.3889C45.368 22.282 44.7683 20.4975 44.7683 18.0355V15.6308H50.6154V18.694C50.6154 19.9154 51.0883 20.5262 52.0339 20.5262C52.5645 20.5262 52.9335 20.4021 53.1411 20.154C53.3487 19.8868 53.4525 19.4478 53.4525 18.8371C53.4525 18.0355 53.3371 17.3771 53.1065 16.8618C52.8758 16.3274 52.576 15.8884 52.2069 15.5449C51.861 15.1823 51.2267 14.6288 50.304 13.8845L47.7438 11.766C45.7601 10.1629 44.7683 8.38795 44.7683 6.44126C44.7683 4.34189 45.3449 2.74827 46.4982 1.66041C47.6746 0.553471 49.3814 0 51.6188 0C54.2944 0 56.2203 0.591642 57.3967 1.77493C58.573 2.93912 59.1612 4.77131 59.1612 7.27147H53.1065L53.0719 5.58243C53.0719 5.25798 52.9566 5.00033 52.7259 4.80948C52.5183 4.61862 52.2185 4.5232 51.8264 4.5232C51.365 4.5232 51.0191 4.62817 50.7884 4.8381C50.5578 5.04804 50.4424 5.33432 50.4424 5.69694C50.4424 6.49852 50.996 7.32873 52.1031 8.18756L55.563 10.9358C56.3703 11.5847 57.0392 12.205 57.5697 12.7966C58.1002 13.3692 58.5269 14.0563 58.8498 14.8578C59.1727 15.6403 59.3342 16.5755 59.3342 17.6634C59.3342 20.0872 58.7921 21.9289 57.7081 23.1885C56.647 24.4291 54.8825 25.0494 52.4145 25.0494Z" fill="#FBAD05"/>
<path d="M61.2003 0.0858824H67.428V5.92596C68.0738 4.39914 69.3078 3.63573 71.13 3.63573C72.8369 3.63573 74.1285 4.08424 75.005 4.98124C75.8815 5.87825 76.3197 7.10925 76.3197 8.67423V24.8203H70.2651V8.98914C70.2651 8.5311 70.1382 8.15893 69.8845 7.87265C69.6308 7.58638 69.2617 7.44324 68.7773 7.44324C68.3622 7.44324 68.0277 7.59592 67.774 7.90128C67.5433 8.18756 67.428 8.54064 67.428 8.96051V24.8203H61.2003V0.0858824Z" fill="#FBAD05"/>
<path d="M83.2699 25.0494C81.3094 25.0494 79.96 24.515 79.222 23.4462C78.5069 22.3583 78.1494 20.8124 78.1494 18.8085C78.1494 17.1672 78.4031 15.9075 78.9106 15.0296C79.4411 14.1517 80.1676 13.5123 81.0903 13.1115C82.0129 12.6917 83.4199 12.2336 85.3112 11.7374L86.972 11.2794V11.2221V9.13228C86.972 8.57881 86.8336 8.15893 86.5568 7.87265C86.3031 7.56729 85.9917 7.41461 85.6226 7.41461C85.2997 7.41461 85.0114 7.53866 84.7577 7.78677C84.527 8.03488 84.4117 8.36887 84.4117 8.78874V10.0484H78.53V9.3613C78.53 7.3001 79.1066 5.83054 80.2599 4.95262C81.4362 4.07469 83.3391 3.63573 85.9686 3.63573C88.0676 3.63573 89.7744 4.09378 91.0891 5.00987C92.4039 5.90688 93.0612 7.18559 93.0612 8.846V24.8203H87.0411V22.3297C86.7413 23.1886 86.2569 23.8565 85.588 24.3337C84.9422 24.8108 84.1695 25.0494 83.2699 25.0494ZM85.6572 21.156C86.1185 21.156 86.4414 21.0033 86.626 20.6979C86.8336 20.3735 86.9374 19.9822 86.9374 19.5242V13.6841C86.0378 13.9704 85.3689 14.333 84.9307 14.772C84.5155 15.2109 84.3079 15.8217 84.3079 16.6041V19.2952C84.3079 20.5357 84.7577 21.156 85.6572 21.156Z" fill="#FBAD05"/>
<path d="M95.3931 3.86476H101.552V4.98124C102.428 4.08424 103.639 3.63573 105.184 3.63573C107.145 3.63573 108.506 4.17966 109.267 5.26752C110.051 6.35538 110.443 7.86311 110.443 9.79072V17.5489C110.443 19.1902 110.328 20.5357 110.097 21.5854C109.867 22.616 109.359 23.4557 108.575 24.1046C107.791 24.7345 106.603 25.0494 105.011 25.0494C103.489 25.0494 102.336 24.6963 101.552 23.9901V29H95.3931V3.86476ZM103.005 21.156C103.558 21.156 103.916 20.946 104.077 20.5262C104.239 20.1063 104.319 19.4956 104.319 18.694V9.79072C104.319 9.06548 104.239 8.51201 104.077 8.13031C103.916 7.7486 103.547 7.55775 102.97 7.55775C102.024 7.55775 101.552 8.28299 101.552 9.73346V18.923C101.552 19.6292 101.644 20.1826 101.828 20.5834C102.036 20.9651 102.428 21.156 103.005 21.156Z" fill="#FBAD05"/>
<path d="M119.785 25.0494C117.178 25.0494 115.31 24.4577 114.18 23.2744C113.05 22.0912 112.485 20.3258 112.485 17.9783V9.5617C112.485 7.63409 113.154 6.16453 114.491 5.15301C115.829 4.14149 117.697 3.63573 120.096 3.63573C124.963 3.63573 127.396 5.61106 127.396 9.5617V11.079C127.396 12.6058 127.373 13.8463 127.327 14.8006H118.539V18.8657C118.539 19.591 118.632 20.1635 118.816 20.5834C119.001 20.9842 119.393 21.1846 119.992 21.1846C120.454 21.1846 120.777 21.0701 120.961 20.8411C121.169 20.612 121.284 20.3544 121.307 20.0681C121.353 19.7628 121.376 19.3238 121.376 18.7512V16.7187H127.396V17.921C127.396 20.3639 126.82 22.1675 125.667 23.3317C124.536 24.4768 122.576 25.0494 119.785 25.0494ZM121.376 12.31V9.61895C121.376 8.11122 120.927 7.35735 120.027 7.35735C119.012 7.35735 118.505 8.11122 118.505 9.61895V12.31H121.376Z" fill="#FBAD05"/>
<path d="M129.586 3.86476H135.641V6.18361C135.94 5.36295 136.459 4.73314 137.198 4.29418C137.959 3.83613 138.893 3.60711 140 3.60711V7.78677C139.147 7.78677 138.201 7.89174 137.163 8.10168C136.148 8.29253 135.641 8.52155 135.641 8.78874V24.8203H129.586V3.86476Z" fill="#FBAD05"/>
<path d="M0 24.5913V0H6.12389L8.85715 11.766V0H14.6005V24.5913H8.78795L5.81251 12.2813V24.5913H0Z" fill="white"/>
<path d="M24.2204 24.8203C21.614 24.8203 19.7457 24.2287 18.6155 23.0454C17.4853 21.8621 16.9202 20.0967 16.9202 17.7493V9.33268C16.9202 7.40507 17.5891 5.93551 18.9269 4.92399C20.2647 3.91247 22.133 3.40671 24.5318 3.40671C29.3986 3.40671 31.832 5.38203 31.832 9.33268V10.85C31.832 12.3768 31.8089 13.6173 31.7628 14.5716H22.9749V18.6367C22.9749 19.362 23.0671 19.9345 23.2516 20.3544C23.4362 20.7552 23.8283 20.9556 24.428 20.9556C24.8893 20.9556 25.2122 20.8411 25.3967 20.612C25.6043 20.383 25.7196 20.1254 25.7427 19.8391C25.7888 19.5337 25.8119 19.0948 25.8119 18.5222V16.4896H31.832V17.692C31.832 20.1349 31.2554 21.9385 30.1021 23.1027C28.9719 24.2478 27.0113 24.8203 24.2204 24.8203ZM25.8119 12.0809V9.38993C25.8119 7.8822 25.3621 7.12833 24.4626 7.12833C23.4477 7.12833 22.9403 7.8822 22.9403 9.38993V12.0809H25.8119Z" fill="white"/>
<path d="M39.2458 24.8203C37.6542 24.8203 36.5586 24.5436 35.9589 23.9901C35.3592 23.4367 35.0594 22.5492 35.0594 21.3277V8.24482H33.3641V4.43732H35.0594V0H40.9411V4.43732H42.671V8.24482H40.9411V20.0109C40.9411 20.3735 40.9757 20.6407 41.0449 20.8124C41.1141 20.9842 41.2986 21.0701 41.5984 21.0701C41.8291 21.0701 42.0482 21.0605 42.2558 21.0415C42.4634 21.0224 42.6018 21.0128 42.671 21.0128V24.4482C42.325 24.5245 41.8176 24.6009 41.1487 24.6772C40.5028 24.7726 39.8685 24.8203 39.2458 24.8203Z" fill="white"/>
</svg>
